<!DOCTYPE svg PUBLIC "-//W3C//DTD SVG 1.1//EN" "http://www.w3.org/Graphics/SVG/1.1/DTD/svg11.dtd">
<!-- Uploaded to: SVG Repo, www.svgrepo.com, Transformed by: SVG Repo Mixer Tools -->
<svg height="800px" width="800px" version="1.1" id="Layer_1" xmlns="http://www.w3.org/2000/svg" xmlns:xlink="http://www.w3.org/1999/xlink" viewBox="0 0 496.159 496.159" xml:space="preserve" fill="#000000">
<g id="SVGRepo_bgCarrier" stroke-width="0"/>
<g id="SVGRepo_tracerCarrier" stroke-linecap="round" stroke-linejoin="round"/>
<g id="SVGRepo_iconCarrier"> <path style="fill:#D8DBBA;" d="M248.083,0.003C111.071,0.003,0,111.063,0,248.085c0,137.001,111.07,248.07,248.083,248.07 c137.006,0,248.076-111.069,248.076-248.07C496.159,111.062,385.089,0.003,248.083,0.003z"/> <path style="fill:#3A3A3A;" d="M350.97,200.987c-13.583-18.908-101.436-106.045-102.855-107.6v-0.074c0,0-0.028,0.031-0.035,0.037 c-0.006-0.006-0.033-0.037-0.033-0.037v0.074c-1.42,1.556-87.721,88.509-102.856,107.601s-63.338,77.588-3.958,122.717 c0,0,65.698,40.9,100.102-29.194c-2.912,70.157-50.752,108.336-50.752,108.336h114.803c0,0-48.015-38.33-50.762-108.741 c34.349,70.667,100.306,29.6,100.306,29.6C414.308,278.575,364.553,219.895,350.97,200.987z"/> </g>
</svg>